<svg id="Layer_1" data-name="Layer 1" xmlns="http://www.w3.org/2000/svg" viewBox="0 0 148.52 57.27"><defs><style>.cls-1{fill:#ed4d24;}</style></defs><title>logo spara svg</title><path class="cls-1" d="M22.28,105c-.87-.14-1.73-.27-2.59-.44a15.57,15.57,0,0,1-7.81-3.82L14.77,95a26.24,26.24,0,0,0,2.4,1.54,14.34,14.34,0,0,0,9.31,1.29A4.36,4.36,0,0,0,30,91.91a5.36,5.36,0,0,0-3-2.64c-1.69-.81-3.44-1.53-5.11-2.4a9.82,9.82,0,0,1-5.49-7.69,13,13,0,0,1,1.78-9.08,11.12,11.12,0,0,1,7.22-4.82,20.19,20.19,0,0,1,5.74-.52,17.4,17.4,0,0,1,10.34,3.83l-4.2,5.54c-.88-.54-1.69-1.12-2.58-1.55a9,9,0,0,0-6.07-.8,3.79,3.79,0,0,0-.88,7.33c1.31.7,2.69,1.26,4,1.89a14.12,14.12,0,0,1,5.94,4.57,10.54,10.54,0,0,1,1.6,6.93,12.4,12.4,0,0,1-8.84,11.41,38.86,38.86,0,0,1-4.46,1c-.19,0-.37.1-.56.15Z" transform="translate(-0.74 -47.77)"/><path class="cls-1" d="M50.25,104.58H42.33c.11-.83.19-1.61.3-2.39L44,92.93c.47-3.31,1-6.61,1.42-9.92s.92-6.75,1.38-10.13c.26-1.82.52-3.63.8-5.45a.63.63,0,0,1,.3-.43A30.64,30.64,0,0,1,52,66c1.7-.21,2.67.79,2.78,2.62,0,.89,0,1.79,0,2.7.53-.73,1.08-1.49,1.65-2.24a8.05,8.05,0,0,1,9.81-2.32,7.71,7.71,0,0,1,3.89,5.16A18.69,18.69,0,0,1,69.85,81a16.67,16.67,0,0,1-4,7.62A13.54,13.54,0,0,1,57.68,93a48,48,0,0,1-5.24.27c-.48,0-.64.15-.7.63C51.26,97.41,50.75,101,50.25,104.58Zm2.42-17.25c.66,0,1.26,0,1.85,0a5.9,5.9,0,0,0,4.76-1.58A9.65,9.65,0,0,0,62,80.44a13.76,13.76,0,0,0,0-6,2.6,2.6,0,0,0-2.67-2.23,3.27,3.27,0,0,0-2.83,1.37,17,17,0,0,0-1.73,3.12,30.84,30.84,0,0,0-1.65,7.44C53,85.17,52.82,86.2,52.67,87.33Z" transform="translate(-0.74 -47.77)"/><path class="cls-1" d="M99.87,66.48c-.23,1.56-.43,3-.64,4.44-.47,3.18-.94,6.35-1.4,9.53-.38,2.59-.74,5.17-1.12,7.76a7.06,7.06,0,0,0,.35,3.72,13.63,13.63,0,0,1-1.7.67,16.91,16.91,0,0,1-3,.62A3.06,3.06,0,0,1,89,90c0-.63,0-1.27,0-2-.21.27-.4.48-.56.72a10,10,0,0,1-3.57,3.51,7.47,7.47,0,0,1-11.1-4.67,16.43,16.43,0,0,1-.31-6,19.32,19.32,0,0,1,1.41-6,14.6,14.6,0,0,1,11-9.28A23.06,23.06,0,0,1,92.27,66c1.48.11,3,.11,4.46.18C97.74,66.28,98.75,66.39,99.87,66.48Zm-8.7,5.4c-1.09,0-2.08,0-3.06,0a5.42,5.42,0,0,0-3.93,1.84,8,8,0,0,0-1.83,3.35,34.29,34.29,0,0,0-.73,3.63,8.94,8.94,0,0,0,.32,4.2,2.9,2.9,0,0,0,4.87,1.17,8.65,8.65,0,0,0,2.11-3.27C90.29,79.33,90.59,75.63,91.17,71.88Z" transform="translate(-0.74 -47.77)"/><path class="cls-1" d="M149.26,66.48c-.12.92-.23,1.76-.35,2.61l-1.29,8.74c-.42,2.84-.86,5.69-1.26,8.54-.26,1.81-.68,3.64.12,5.56a15.11,15.11,0,0,1-1.71.67,17,17,0,0,1-3.05.62,3.07,3.07,0,0,1-3.37-3.2c0-.63,0-1.27,0-2-.21.27-.4.48-.55.72a10.17,10.17,0,0,1-3.57,3.51,7.48,7.48,0,0,1-11.11-4.68,16.86,16.86,0,0,1-.31-6,19.84,19.84,0,0,1,1.41-6,14.6,14.6,0,0,1,11-9.28,23.14,23.14,0,0,1,6.44-.22c1.48.11,3,.11,4.45.18C147.14,66.28,148.15,66.39,149.26,66.48Zm-8.69,5.4c-1,0-2,0-2.94,0A5.55,5.55,0,0,0,133,74.41a12.18,12.18,0,0,0-2,5.71,11.38,11.38,0,0,0,.24,4.61,2.89,2.89,0,0,0,5,1.3,8.89,8.89,0,0,0,2.05-3.23C139.7,79.32,140,75.62,140.57,71.88Z" transform="translate(-0.74 -47.77)"/><path class="cls-1" d="M109.82,92.67H101.9L105.4,67a11.29,11.29,0,0,1,3.87-1c2.1-.14,3.21,1.34,3.35,3.31,0,.65,0,1.31,0,2.12.27-.48.46-.84.67-1.19a8.17,8.17,0,0,1,3.92-3.84,7,7,0,0,1,5.76.51l-3,6.8a5.16,5.16,0,0,0-3.08-.73,3.7,3.7,0,0,0-2.69,1.52,13.3,13.3,0,0,0-2.34,5.67c-.58,2.86-1,5.75-1.5,8.63C110.17,90,110,91.34,109.82,92.67Z" transform="translate(-0.74 -47.77)"/><path class="cls-1" d="M2.22,47.77c1.66,2.91,4.35,4.37,7.21,5.65,2,.88,4,1.78,5.88,2.81a11.67,11.67,0,0,1,3.8,3.4c.15.2.27.4.44.64l-1.37,1-.8-1a14.46,14.46,0,0,0-5.45-3.85c-1.3-.59-2.6-1.15-3.91-1.71a17.27,17.27,0,0,1-5.48-3.61,13.75,13.75,0,0,0,2,9.19,12.87,12.87,0,0,0,7.77,5.27,10.49,10.49,0,0,1-.4,1.34c0,.12-.4.21-.57.16a14.65,14.65,0,0,1-7-4.27,14.19,14.19,0,0,1-3.57-10c0-1.07.05-2.14,0-3.21a1.22,1.22,0,0,1,.77-1.37A6.47,6.47,0,0,0,2.22,47.77Z" transform="translate(-0.74 -47.77)"/></svg>