<svg xmlns="http://www.w3.org/2000/svg" width="30" height="30" viewBox="0 0 30 30">
  <g id="Group_3461" data-name="Group 3461" transform="translate(-20 -282)">
    <circle id="Ellipse_877" data-name="Ellipse 877" cx="15" cy="15" r="15" transform="translate(20 282)" fill="#fc7065"/>
    <g id="Group_3460" data-name="Group 3460" transform="translate(27 289)">
      <g id="Group_3251" data-name="Group 3251">
        <g id="Group_3246" data-name="Group 3246" transform="translate(3.26 0.001)">
          <path id="Path_1936" data-name="Path 1936" d="M492.271,144.308a6.719,6.719,0,0,0,2.718-.62,8.713,8.713,0,0,0,2.588-1.807,8.358,8.358,0,0,0,2.205-3.713.07.07,0,0,0,0-.008,2.546,2.546,0,0,0-.519-1.491,11.821,11.821,0,0,0-1.616-1.972c-1.285-1.284-2.619-2.147-3.319-2.147a.736.736,0,0,0-.143.013h-.008a8.36,8.36,0,0,0-3.7,2.206,8.129,8.129,0,0,0-2.355,4.422,4.457,4.457,0,0,0,1.1,3.94,4.193,4.193,0,0,0,3.049,1.177Zm7.269-6.2a8.11,8.11,0,0,1-2.139,3.6,7.574,7.574,0,0,1-5.129,2.353,3.949,3.949,0,0,1-2.871-1.1c-1.861-1.862-1.3-5.455,1.253-8.008a8.108,8.108,0,0,1,3.587-2.14.5.5,0,0,1,.091-.008c.628,0,1.921.853,3.142,2.073,1.282,1.281,2.169,2.669,2.065,3.231Z" transform="translate(-488.05 -132.552)" fill="none" stroke="#000" stroke-width="0.3"/>
        </g>
        <g id="Group_3247" data-name="Group 3247" transform="translate(0 9.35)">
          <path id="Path_1937" data-name="Path 1937" d="M544.431,192.172a1.282,1.282,0,0,0,.913-.379,1.3,1.3,0,0,0,.288-1.388l1.95-1.951a.125.125,0,0,0-.034-.2,3.556,3.556,0,0,1-1.681-1.682.125.125,0,0,0-.2-.034l-1.949,1.951a1.3,1.3,0,0,0-.474-.09,1.281,1.281,0,0,0-.913.378,1.3,1.3,0,0,0,0,1.828,1.29,1.29,0,0,1,1.188,1.189,1.282,1.282,0,0,0,.912.378Zm2.853-3.773-1.888,1.89a.125.125,0,0,0-.024.142,1.039,1.039,0,1,1-1.976.428.126.126,0,0,0-.037-.091.122.122,0,0,0-.091-.037h-.021a1.032,1.032,0,0,1-.735-.3,1.046,1.046,0,0,1,0-1.474,1.033,1.033,0,0,1,.736-.3,1.052,1.052,0,0,1,.448.1.125.125,0,0,0,.142-.024l1.888-1.889a3.8,3.8,0,0,0,1.563,1.563Z" transform="translate(-541.953 -186.5)" fill="none" stroke="#000" stroke-width="0.3"/>
        </g>
        <g id="Group_3248" data-name="Group 3248" transform="translate(8.983)">
          <path id="Path_1938" data-name="Path 1938" d="M493.494,138.577a.6.6,0,0,0,.41-.136.53.53,0,0,0,.167-.4c.021-.7-.842-2.04-2.148-3.346-1.285-1.284-2.619-2.147-3.32-2.147a.535.535,0,0,0-.42.164c-.538.605.594,2.336,1.991,3.733C491.468,137.74,492.771,138.577,493.494,138.577ZM488.6,132.8c.629,0,1.922.853,3.143,2.074,1.241,1.241,2.094,2.54,2.075,3.161a.287.287,0,0,1-.083.219.361.361,0,0,1-.245.073c-.64,0-1.932-.846-3.143-2.057-1.582-1.582-2.3-3.03-1.981-3.39a.3.3,0,0,1,.234-.08Z" transform="translate(-488.047 -132.549)" fill="none" stroke="#000" stroke-width="0.3"/>
        </g>
        <g id="Group_3249" data-name="Group 3249" transform="translate(4.186 4.585)">
          <path id="Path_1939" data-name="Path 1939" d="M543.914,162.666a.125.125,0,0,0,.089-.214c-.747-.749-.513-2.2.521-3.235a.125.125,0,1,0-.177-.177c-1.132,1.133-1.366,2.743-.521,3.589A.124.124,0,0,0,543.914,162.666Z" transform="translate(-543.319 -159.004)" fill="none" stroke="#000" stroke-width="0.3"/>
        </g>
      </g>
    </g>
  </g>
</svg>
