<svg xmlns="http://www.w3.org/2000/svg" width="30" height="30" viewBox="0 0 30 30">
  <g id="Group_3467" data-name="Group 3467" transform="translate(-20 -648)">
    <circle id="Ellipse_877" data-name="Ellipse 877" cx="15" cy="15" r="15" transform="translate(20 648)" fill="#f7dc46"/>
    <g id="outline" transform="translate(11.965 635.815)">
      <path id="Path_2050" data-name="Path 2050" d="M29.6,22.172a1.2,1.2,0,0,0-.609-.089A1.189,1.189,0,0,0,27.9,21.61a1.188,1.188,0,0,0-1.092-.472,1.189,1.189,0,0,0-1.092-.472,1.19,1.19,0,0,0-2.137.847A1.189,1.189,0,0,0,23.1,22.6a1.187,1.187,0,0,0-.478,1.021,3.57,3.57,0,1,0-4.806,5,1.024,1.024,0,0,0-.392,1.307,1.023,1.023,0,0,0,0,1.679,1.023,1.023,0,0,0,.839,1.454,1.023,1.023,0,0,0,1.454.839,1.023,1.023,0,0,0,1.679,0,1.023,1.023,0,0,0,1.454-.839,1.023,1.023,0,0,0,.839-1.454,1.023,1.023,0,0,0,.114-1.586,1.2,1.2,0,0,0,.44.032,1.187,1.187,0,0,0,1.092.472,1.19,1.19,0,0,0,2.137-.847,1.189,1.189,0,0,0,.472-1.092,1.188,1.188,0,0,0,.472-1.092,1.189,1.189,0,0,0,.472-1.092,1.188,1.188,0,0,0,.472-1.092,1.188,1.188,0,0,0,.472-1.092A1.19,1.19,0,0,0,29.6,22.17Zm-12.761,4.74a3.094,3.094,0,0,1,5.54-2.757h0v.007a3.1,3.1,0,0,1-.426,3.384,1.017,1.017,0,0,0-.558.089,1.023,1.023,0,0,0-1.679,0,1.016,1.016,0,0,0-.442-.1l-.2-.412-.426.212.159.32-.032.017a1.019,1.019,0,0,0-.485.654,3.074,3.074,0,0,1-1.451-1.414Zm6.436,4.378a.238.238,0,0,0-.1.387.546.546,0,0,1-.52.9.238.238,0,0,0-.283.283.546.546,0,0,1-.9.52.238.238,0,0,0-.387.1.546.546,0,0,1-1.04,0,.238.238,0,0,0-.387-.1.546.546,0,0,1-.9-.52.238.238,0,0,0-.283-.283.546.546,0,0,1-.52-.9.238.238,0,0,0-.1-.387.546.546,0,0,1,0-1.04.238.238,0,0,0,.1-.387.546.546,0,0,1,.52-.9.238.238,0,0,0,.283-.283.546.546,0,0,1,.9-.52.238.238,0,0,0,.387-.1.546.546,0,0,1,1.04,0,.238.238,0,0,0,.387.1.546.546,0,0,1,.9.52.238.238,0,0,0,.283.283.546.546,0,0,1,.655.62.2.2,0,0,0,0,.021.545.545,0,0,1-.131.259.238.238,0,0,0,.1.387.546.546,0,0,1,0,1.04Zm6.509-7.742a.7.7,0,0,1-.321.347.238.238,0,0,0-.118.273.713.713,0,0,1-.354.819.238.238,0,0,0-.118.273.713.713,0,0,1-.354.819.238.238,0,0,0-.118.273.713.713,0,0,1-.354.819.238.238,0,0,0-.118.273.713.713,0,0,1-.354.819.238.238,0,0,0-.118.274.713.713,0,0,1-.354.819.238.238,0,0,0-.118.273.714.714,0,0,1-1.319.522.238.238,0,0,0-.273-.118.713.713,0,0,1-.819-.354.238.238,0,0,0-.273-.118.707.707,0,0,1-.472-.033l-.037-.017a1.024,1.024,0,0,0-.936-1.034,1.017,1.017,0,0,0-.429-.748,3.569,3.569,0,0,0,.457-3.623A.715.715,0,0,1,23,24.021a.238.238,0,0,0,.118-.273.713.713,0,0,1,.354-.819.238.238,0,0,0,.118-.273.713.713,0,0,1,.354-.819.238.238,0,0,0,.119-.273.707.707,0,0,1,.033-.472.715.715,0,0,1,.939-.372.7.7,0,0,1,.347.321.238.238,0,0,0,.273.118.714.714,0,0,1,.819.354.238.238,0,0,0,.273.118.713.713,0,0,1,.819.354.238.238,0,0,0,.273.118.713.713,0,0,1,.819.354.238.238,0,0,0,.273.118.714.714,0,0,1,.843.972Z"/>
      <path id="Path_2051" data-name="Path 2051" d="M112,376h.476v.476H112Z" transform="translate(-93.111 -345.229)"/>
      <path id="Path_2052" data-name="Path 2052" d="M160,376h.476v.476H160Z" transform="translate(-139.683 -345.229)"/>
      <path id="Path_2053" data-name="Path 2053" d="M160,424h.476v.476H160Z" transform="translate(-139.683 -391.801)"/>
      <path id="Path_2054" data-name="Path 2054" d="M208,376h.476v.476H208Z" transform="translate(-186.255 -345.229)"/>
      <path id="Path_2055" data-name="Path 2055" d="M112,328h.476v.476H112Z" transform="translate(-93.111 -298.657)"/>
      <path id="Path_2056" data-name="Path 2056" d="M160,328h.476v.476H160Z" transform="translate(-139.683 -298.657)"/>
      <path id="Path_2057" data-name="Path 2057" d="M208,328h.476v.476H208Z" transform="translate(-186.255 -298.657)"/>
      <path id="Path_2058" data-name="Path 2058" d="M0,0H.476V.476H0Z" transform="translate(25.097 22.532) rotate(-66.613)"/>
      <path id="Path_2059" data-name="Path 2059" d="M0,0H.476V.476H0Z" transform="translate(24.529 23.842) rotate(-66.613)"/>
      <path id="Path_2060" data-name="Path 2060" d="M0,0H.476V.476H0Z" transform="translate(23.963 25.154) rotate(-66.613)"/>
      <path id="Path_2061" data-name="Path 2061" d="M0,0H.476V.476H0Z" transform="translate(23.396 26.464) rotate(-66.613)"/>
      <path id="Path_2062" data-name="Path 2062" d="M0,0H.476V.476H0Z" transform="translate(22.83 27.776) rotate(-66.613)"/>
      <path id="Path_2063" data-name="Path 2063" d="M0,0H.476V.476H0Z" transform="translate(26.407 23.098) rotate(-66.613)"/>
      <path id="Path_2064" data-name="Path 2064" d="M0,0H.476V.476H0Z" transform="translate(25.84 24.409) rotate(-66.613)"/>
      <path id="Path_2065" data-name="Path 2065" d="M0,0H.476V.476H0Z" transform="translate(25.274 25.721) rotate(-66.613)"/>
      <path id="Path_2066" data-name="Path 2066" d="M0,0H.476V.476H0Z" transform="translate(24.707 27.03) rotate(-66.613)"/>
      <path id="Path_2067" data-name="Path 2067" d="M0,0H.476V.476H0Z" transform="translate(24.141 28.343) rotate(-66.613)"/>
      <path id="Path_2068" data-name="Path 2068" d="M0,0H.476V.476H0Z" transform="translate(18.003 26.062) rotate(-26.437)"/>
      <path id="Path_2069" data-name="Path 2069" d="M0,0H.476V.476H0Z" transform="translate(19.281 25.427) rotate(-26.437)"/>
      <path id="Path_2070" data-name="Path 2070" d="M0,0H.476V.476H0Z" transform="translate(19.917 26.705) rotate(-26.437)"/>
      <path id="Path_2071" data-name="Path 2071" d="M0,0H.476V.476H0Z" transform="translate(20.56 24.791) rotate(-26.437)"/>
      <path id="Path_2072" data-name="Path 2072" d="M0,0H.476V.476H0Z" transform="translate(17.368 24.784) rotate(-26.437)"/>
      <path id="Path_2073" data-name="Path 2073" d="M0,0H.476V.476H0Z" transform="translate(18.646 24.148) rotate(-26.437)"/>
      <path id="Path_2074" data-name="Path 2074" d="M0,0H.476V.476H0Z" transform="translate(19.924 23.513) rotate(-26.437)"/>
      <path id="Path_2075" data-name="Path 2075" d="M0,0H.476V.476H0Z" transform="translate(21.201 26.065) rotate(-26.488)"/>
      <path id="Path_2076" data-name="Path 2076" d="M0,0H.476V.476H0Z" transform="translate(27.718 23.664) rotate(-66.613)"/>
      <path id="Path_2077" data-name="Path 2077" d="M0,0H.476V.476H0Z" transform="translate(27.151 24.975) rotate(-66.613)"/>
      <path id="Path_2078" data-name="Path 2078" d="M0,0H.476V.476H0Z" transform="translate(26.584 26.286) rotate(-66.613)"/>
      <path id="Path_2079" data-name="Path 2079" d="M0,0H.476V.476H0Z" transform="translate(26.018 27.597) rotate(-66.613)"/>
      <path id="Path_2080" data-name="Path 2080" d="M0,0H.476V.476H0Z" transform="translate(25.451 28.908) rotate(-66.613)"/>
      <path id="Path_2081" data-name="Path 2081" d="M112,424h.476v.476H112Z" transform="translate(-93.111 -391.801)"/>
      <path id="Path_2082" data-name="Path 2082" d="M208,424h.476v.476H208Z" transform="translate(-186.255 -391.801)"/>
    </g>
  </g>
</svg>
