<svg xmlns="http://www.w3.org/2000/svg" width="30" height="30" viewBox="0 0 30 30">
  <g id="Group_3464" data-name="Group 3464" transform="translate(-20 -465)">
    <circle id="Ellipse_877" data-name="Ellipse 877" cx="15" cy="15" r="15" transform="translate(20 465)" fill="#fda193"/>
    <g id="cabbage" transform="translate(28 467.003)">
      <g id="Group_3447" data-name="Group 3447" transform="translate(0 5.997)">
        <path id="Path_2041" data-name="Path 2041" d="M14.3,10.113c-.058-.661-.777-.947-1.426-.91-.057-.028-.116-.042-.122-.116a1.967,1.967,0,0,0-1.1-1.6c-.607-.291-.819-.085-.9-.312A1.819,1.819,0,0,0,9.725,6.089a.21.21,0,0,0-.16.387,1.4,1.4,0,0,1,.787.834.589.589,0,0,0,.525.4,1.529,1.529,0,0,1,.588.149,1.546,1.546,0,0,1,.869,1.259.525.525,0,0,0,.053.19,1.53,1.53,0,0,0-.779.8,5.809,5.809,0,0,0-2.563-1.7A2.015,2.015,0,0,0,7.94,6.9a1.409,1.409,0,0,1,.776-.489A.211.211,0,0,0,8.619,6a1.825,1.825,0,0,0-1.089.748,2.01,2.01,0,0,0-1.9.54.218.218,0,0,1-.238.057,2.173,2.173,0,0,0-2.709.9.145.145,0,0,1-.132.071,2.505,2.505,0,0,0-.362.012A2.453,2.453,0,0,0,.451,12.183a.466.466,0,0,1,.05.464,1.755,1.755,0,0,0,.284,1.877,1.1,1.1,0,0,0-.52,1.329,1.444,1.444,0,0,0,1.6.7c.173-.035.325.251.557.722a3.821,3.821,0,0,0,3.791,2.553,7.342,7.342,0,0,0,1.025-.077,3.61,3.61,0,0,0,1.271.218,5.652,5.652,0,0,0,3.862-1.83,4.676,4.676,0,0,0,1.2-2.11.209.209,0,1,0-.4-.112,4.263,4.263,0,0,1-1.095,1.924,5.31,5.31,0,0,1-3.389,1.7,3.344,3.344,0,0,1-1.23-.161h0l-.023-.054a3.574,3.574,0,0,1,2.605-2.6.211.211,0,0,0,.045-.012c3.72-1.357,2.957-3.906,3.03-4.938a9.684,9.684,0,0,1,.238,3.194.209.209,0,0,0,.416.047,10.131,10.131,0,0,0-.321-3.633,1.371,1.371,0,0,0,.853-1.271ZM.884,12.818a.893.893,0,0,0-.09-.877,2.031,2.031,0,0,1,1.742-3.2.563.563,0,0,0,.51-.278,1.753,1.753,0,0,1,2.185-.729.634.634,0,0,0,.7-.148,1.589,1.589,0,0,1,2.661.7,5.822,5.822,0,0,0-7.163,5.94,1.522,1.522,0,0,0-.268.087,1.337,1.337,0,0,1-.277-1.495ZM1.9,16.126a.6.6,0,0,0-.119.012,1.026,1.026,0,0,1-1.133-.454c-.218-.5.536-1.073,1.076-1.076a1.45,1.45,0,0,1,1.061.6l.012.016a.21.21,0,0,0,.157.09,2.083,2.083,0,0,1,1.67,1.841.6.6,0,0,0,.017.084.209.209,0,0,0,.194.176c.98.063,1.728,1.055,2.152,1.94C2.622,19.868,3.131,16.126,1.9,16.126Zm7.881.221a3.38,3.38,0,0,0-1.9,1.226,9.352,9.352,0,0,0,.033-1.436.207.207,0,0,0,0-.026,8.283,8.283,0,0,0-.18-1.308V14.8a4.113,4.113,0,0,1,2.183-3.279.21.21,0,0,0-.2-.37A4.481,4.481,0,0,0,7.634,13.44a4.742,4.742,0,0,0-.16.459l-.022-.063v-.008A7.742,7.742,0,0,0,6.761,12.4a4.119,4.119,0,0,1,1.268-2.157.209.209,0,0,0-.269-.321,4.393,4.393,0,0,0-1.307,2.015,6.987,6.987,0,0,0-1.809-1.788.209.209,0,1,0-.219.357,5.774,5.774,0,0,1,.968.817,3.7,3.7,0,0,0-1.445.129.211.211,0,0,0,.134.4,3.354,3.354,0,0,1,1.766-.015c.142.175.284.366.424.577a7.239,7.239,0,0,1,.526.941,4.935,4.935,0,0,0-3.379.111.209.209,0,0,0,.154.389c.023-.009,2.268-.879,3.495.164a7.68,7.68,0,0,1,.389,1.73,3.916,3.916,0,0,0-2.1-.452.209.209,0,0,0,.037.417,3.637,3.637,0,0,1,2.1.539,9.351,9.351,0,0,1-.169,2.2c-.06.123-.111.24-.154.348A3.292,3.292,0,0,0,5.02,17.012,2.48,2.48,0,0,0,3.078,14.9a1.883,1.883,0,0,0-1.237-.714,5.4,5.4,0,0,1,9.608-3.618l-.008.039a2.043,2.043,0,0,0-.809,1.768,3.718,3.718,0,0,0,.133.934c-1.052.8-1.026,2.46-.982,3.034Zm3.346-5.289c-1.294.408,1.14,3.517-2.933,5.163-.032-.6,0-2.051.93-2.641a.21.21,0,0,0,.085-.248c-.006-.017-.584-1.689.539-2.418.1-.067.083-.144.128-.32v-.013a1.116,1.116,0,0,1,1.285-.949c1.173.145.739,1.182-.033,1.426Z" transform="translate(0 -5.997)"/>
      </g>
    </g>
  </g>
</svg>
