<svg xmlns="http://www.w3.org/2000/svg" width="30" height="30" viewBox="0 0 30 30">
  <g id="Group_3466" data-name="Group 3466" transform="translate(-20 -587)">
    <circle id="Ellipse_877" data-name="Ellipse 877" cx="15" cy="15" r="15" transform="translate(20 587)" fill="#51eee7"/>
    <g id="water" transform="translate(-112.047 595)">
      <g id="Group_3449" data-name="Group 3449" transform="translate(144.047)">
        <g id="Group_3448" data-name="Group 3448">
          <path id="Path_2049" data-name="Path 2049" d="M150.573,9.9a1.034,1.034,0,0,0-.4-.818,1.03,1.03,0,0,0-.045-1.665,1.146,1.146,0,0,0,.433-.906V4.337l-2.1-2.73h.461V0h-3.243V1.607h.49l-2.126,2.73V6.515a1.159,1.159,0,0,0,.447.906,1.037,1.037,0,0,0-.034,1.665,1.041,1.041,0,0,0,.033,1.665,1.158,1.158,0,0,0-.447.906v1.87a1.18,1.18,0,0,0,1.169,1.169h1.169v-.019a1.161,1.161,0,0,0,.7.253h.467a1.161,1.161,0,0,0,.7-.253V14.7h1.169a1.155,1.155,0,0,0,1.139-1.169v-1.87a1.146,1.146,0,0,0-.433-.906A1.04,1.04,0,0,0,150.573,9.9Zm-4.451-8.735V.438h2.366v.73Zm.6.438h1.186l2,2.6h-5.187Zm2.814,7.713a.6.6,0,1,1,0,1.2h-.584v.438h.467a.692.692,0,0,1,.7.7v1.87a.717.717,0,0,1-.7.73H148.6a1.321,1.321,0,0,0,.106-.5h-.438a.729.729,0,0,1-.716.73h-.467a.729.729,0,0,1-.716-.73h-.438a1.321,1.321,0,0,0,.106.5h-.822a.742.742,0,0,1-.73-.73v-1.87a.717.717,0,0,1,.73-.7h2.337v-.438H145.1a.6.6,0,1,1,0-1.2h2.454V8.881H145.1a.6.6,0,1,1,0-1.2h2.454V7.245h-2.337a.742.742,0,0,1-.73-.73V4.645h5.638v1.87a.717.717,0,0,1-.7.73h-.467v.438h.584a.6.6,0,1,1,0,1.2h-.584v.438Z" transform="translate(-144.047)"/>
        </g>
      </g>
      <g id="Group_3451" data-name="Group 3451" transform="translate(145.683 3.272)">
        <g id="Group_3450" data-name="Group 3450">
          <rect id="Rectangle_613" data-name="Rectangle 613" width="0.467" height="0.438"/>
        </g>
      </g>
      <g id="Group_3453" data-name="Group 3453" transform="translate(146.151 2.805)">
        <g id="Group_3452" data-name="Group 3452">
          <rect id="Rectangle_614" data-name="Rectangle 614" width="0.467" height="0.438"/>
        </g>
      </g>
      <g id="Group_3455" data-name="Group 3455" transform="translate(148.02 8.881)">
        <g id="Group_3454" data-name="Group 3454">
          <rect id="Rectangle_615" data-name="Rectangle 615" width="0.467" height="0.438"/>
        </g>
      </g>
      <g id="Group_3457" data-name="Group 3457" transform="translate(148.02 7.245)">
        <g id="Group_3456" data-name="Group 3456">
          <rect id="Rectangle_616" data-name="Rectangle 616" width="0.467" height="0.438"/>
        </g>
      </g>
      <g id="Group_3459" data-name="Group 3459" transform="translate(148.02 10.517)">
        <g id="Group_3458" data-name="Group 3458">
          <rect id="Rectangle_617" data-name="Rectangle 617" width="0.467" height="0.438"/>
        </g>
      </g>
    </g>
  </g>
</svg>
