<svg xmlns="http://www.w3.org/2000/svg" width="30" height="30" viewBox="0 0 30 30">
  <g id="Group_3468" data-name="Group 3468" transform="translate(-20 -343)">
    <circle id="Ellipse_877" data-name="Ellipse 877" cx="15" cy="15" r="15" transform="translate(20 343)" fill="#8ef0f1"/>
    <g id="fish" transform="translate(28 288.002)">
      <g id="Group_3436" data-name="Group 3436" transform="translate(0 63.998)">
        <g id="Group_3435" data-name="Group 3435">
          <path id="Path_2034" data-name="Path 2034" d="M14.682,69.675a7.2,7.2,0,0,0-5.6-3.785C7.9,64.39,4.182,64.015,4.021,64a.307.307,0,0,0-.316.415,24.727,24.727,0,0,1,.836,2.462,10.424,10.424,0,0,0-1.645.911A3.232,3.232,0,0,0,.307,66.451.307.307,0,0,0,0,66.758a4.061,4.061,0,0,0,1.034,3.067A4.061,4.061,0,0,0,0,72.891a.307.307,0,0,0,.307.307,3.231,3.231,0,0,0,2.585-1.336,11.993,11.993,0,0,0,2.333,1.206,3.26,3.26,0,0,0-.319,1.664.307.307,0,0,0,.307.307A4.727,4.727,0,0,0,8.429,73.8a7.19,7.19,0,0,0,6.253-3.828A.307.307,0,0,0,14.682,69.675Zm-10.228-5a9.9,9.9,0,0,1,3.678,1.173,9.709,9.709,0,0,0-3.026.786c-.136-.543-.437-1.385-.652-1.963Zm1.074,9.736c.041-.853.238-1.071.293-1.116a9.979,9.979,0,0,0,1.753.46,4.441,4.441,0,0,1-2.047.652Zm.257-1.127Zm2.5-.082A10.977,10.977,0,0,1,3.02,71.175a.306.306,0,0,0-.219-.092.324.324,0,0,0-.056,0,.307.307,0,0,0-.226.18,2.341,2.341,0,0,1-1.9,1.29c.1-1.922,1-2.435,1.052-2.46a.308.308,0,0,0,0-.545c-.04-.023-.955-.533-1.052-2.46a2.358,2.358,0,0,1,1.893,1.292.307.307,0,0,0,.5.093A10.977,10.977,0,0,1,8.28,66.451a6.579,6.579,0,0,1,5.78,3.373A6.579,6.579,0,0,1,8.28,73.2Z" transform="translate(0 -63.998)"/>
          <path id="Path_2035" data-name="Path 2035" d="M299.28,173.441a4.487,4.487,0,0,1,.562-2.284.307.307,0,0,0-.511-.339,5.509,5.509,0,0,0,0,5.247.307.307,0,0,0,.51-.34,4.427,4.427,0,0,1-.561-2.284Z" transform="translate(-290.08 -167.614)"/>
          <path id="Path_2036" data-name="Path 2036" d="M257.089,170.733a.307.307,0,0,0-.424.085,5,5,0,0,0-.665,2.624,5.588,5.588,0,0,0,.341,1.948.307.307,0,0,0,.574-.215,4.975,4.975,0,0,1-.3-1.733,4.488,4.488,0,0,1,.562-2.284A.307.307,0,0,0,257.089,170.733Z" transform="translate(-248.64 -167.615)"/>
          <circle id="Ellipse_878" data-name="Ellipse 878" cx="0.613" cy="0.613" r="0.613" transform="translate(10.427 4.294)"/>
        </g>
      </g>
    </g>
  </g>
</svg>
