<svg xmlns="http://www.w3.org/2000/svg" width="30" height="30" viewBox="0 0 30 30">
  <g id="Group_2" data-name="Group 2" transform="translate(-945 -281)">
    <g id="Group_1" data-name="Group 1">
      <circle id="Ellipse_877" data-name="Ellipse 877" cx="15" cy="15" r="15" transform="translate(945 281)" fill="#f7dc46"/>
      <g id="diet" transform="translate(951 260.727)">
        <g id="Group_3395" data-name="Group 3395" transform="translate(5.673 32.571)">
          <g id="Group_3394" data-name="Group 3394">
            <path id="Path_2019" data-name="Path 2019" d="M158.864,191.553a.841.841,0,0,0-1.462.553.27.27,0,0,0,.266.275h0a.27.27,0,0,0,.27-.266.3.3,0,0,1,.523-.2.271.271,0,0,0,.4-.365Z" transform="translate(-157.402 -191.28)"/>
          </g>
        </g>
        <g id="Group_3397" data-name="Group 3397" transform="translate(7.122 33.256)">
          <g id="Group_3396" data-name="Group 3396">
            <path id="Path_2020" data-name="Path 2020" d="M199.045,210.752a.772.772,0,0,0-1.435.034.27.27,0,0,0,.507.188.232.232,0,0,1,.3-.137.228.228,0,0,1,.132.126.272.272,0,0,0,.5-.212Z" transform="translate(-197.594 -210.283)"/>
          </g>
        </g>
        <g id="Group_3399" data-name="Group 3399" transform="translate(9.6 31.253)">
          <g id="Group_3398" data-name="Group 3398">
            <path id="Path_2021" data-name="Path 2021" d="M267.055,154.772a.27.27,0,0,0-.382,0l-.255.255a.27.27,0,0,0,.383.382l.255-.255A.27.27,0,0,0,267.055,154.772Z" transform="translate(-266.339 -154.693)"/>
          </g>
        </g>
        <g id="Group_3401" data-name="Group 3401" transform="translate(8.004 34.822)">
          <g id="Group_3400" data-name="Group 3400">
            <path id="Path_2022" data-name="Path 2022" d="M222.68,253.709h-.36a.271.271,0,1,0,0,.541h.36a.271.271,0,0,0,0-.541Z" transform="translate(-222.049 -253.709)"/>
          </g>
        </g>
        <g id="Group_3403" data-name="Group 3403" transform="translate(10.766 34.822)">
          <g id="Group_3402" data-name="Group 3402">
            <path id="Path_2023" data-name="Path 2023" d="M299.323,253.709h-.36a.271.271,0,1,0,0,.541h.36a.271.271,0,0,0,0-.541Z" transform="translate(-298.692 -253.709)"/>
          </g>
        </g>
        <g id="Group_3405" data-name="Group 3405" transform="translate(0 26.637)">
          <g id="Group_3404" data-name="Group 3404">
            <path id="Path_2024" data-name="Path 2024" d="M18.446,39.7l-.07-.38a.513.513,0,0,0-.6-.411l-1.433.263.649-.434a.511.511,0,0,0,.161-.677l-.2-.348a.511.511,0,0,0-.513-.256,6.838,6.838,0,0,0,.11-1.221.452.452,0,0,0-.269-.413,2.073,2.073,0,0,0,.016-1.569.328.328,0,0,0-.183-.184,2.056,2.056,0,0,0-.764-.147h-.1A1.425,1.425,0,0,0,13.538,32.6a2.228,2.228,0,0,0-.126-1.19.332.332,0,0,0-.187-.188,2.222,2.222,0,0,0-2.008.184,2.674,2.674,0,0,0-.636-1.018.459.459,0,0,0-.65,0L8.622,31.7a1.366,1.366,0,0,0-1.883.065,1.359,1.359,0,0,0-1.008-.072V30.679A1.276,1.276,0,0,0,4.48,29.4v-.57a.451.451,0,0,0,.374-.443v-1.3a.451.451,0,0,0-.451-.451H2.2a.451.451,0,0,0-.451.451v1.3a.451.451,0,0,0,.374.443v.57A1.276,1.276,0,0,0,.876,30.679v7.89A2.582,2.582,0,0,0,0,40.488a2.8,2.8,0,0,0,2.9,2.683h10.82a1.237,1.237,0,0,0,1.224-1.431l2.161.388a.516.516,0,0,0,.6-.428l.059-.393a.511.511,0,0,0-.392-.574l-.762-.175,1.432-.263a.512.512,0,0,0,.412-.6Zm-3.09-5.234a1.516,1.516,0,0,1,.477.077,1.531,1.531,0,0,1-.129,1.243h-.728l.232-.233a.27.27,0,1,0-.383-.382l-.123.123a1.254,1.254,0,0,0-.291-.5,1.512,1.512,0,0,1,.945-.332Zm-1.525-1.354a.888.888,0,0,1,.885.888q0,.013,0,.027a2.054,2.054,0,0,0-.772.458,1.069,1.069,0,0,0-.109-.036,1.254,1.254,0,0,0-.747-.93.884.884,0,0,1,.743-.411ZM12.4,31.6a1.675,1.675,0,0,1,.538.088,1.694,1.694,0,0,1-.067,1.248,1.436,1.436,0,0,0-.346.48,1.276,1.276,0,0,0-.144.016,1.262,1.262,0,0,0-.575.262,1.431,1.431,0,0,0-.2-.284l.62-.621a.27.27,0,0,0-.383-.382l-.678.679a1.413,1.413,0,0,0-.415-.123A1.687,1.687,0,0,1,12.4,31.6Zm-2.071,4.18H10.1a.27.27,0,0,0-.5,0H9.318a.27.27,0,0,0-.418-.33l-.255.255a.269.269,0,0,0-.053.077h-.55a2.138,2.138,0,0,1-.347-1.091H11.98a2.138,2.138,0,0,1-.347,1.091H11.06a.269.269,0,0,0-.053-.077l-.255-.255a.27.27,0,0,0-.422.332ZM9.7,34.15a.885.885,0,0,1,1.709,0Zm.553-3.324a2.138,2.138,0,0,1,.511.955,2.226,2.226,0,0,0-.343.492.269.269,0,0,0-.141-.04H9.92a.271.271,0,0,0,0,.541h.316A2.239,2.239,0,0,0,10.2,33a1.414,1.414,0,0,0-.306.119,1.365,1.365,0,0,0-.832-.636h0a1.369,1.369,0,0,0-.109-.346Zm-4.885,2.44a.816.816,0,0,1-.036-.135A.825.825,0,0,1,6,32.178a.834.834,0,0,1,.143-.012.817.817,0,0,1,.492.164.27.27,0,0,0,.387-.067.819.819,0,0,1,.547-.358.834.834,0,0,1,.143-.012.82.82,0,0,1,.809.681.829.829,0,0,1,.012.14.27.27,0,0,0,.247.269.823.823,0,0,1,.679.485,1.425,1.425,0,0,0-.312.683H7.608a.46.46,0,0,0-.425.286,2.063,2.063,0,0,0-1.922-.209.328.328,0,0,0-.183.184,2.071,2.071,0,0,0-.126.481A.823.823,0,0,1,5.227,33.6a.27.27,0,0,0,.141-.334Zm.806,2.442.074.074H5.6A1.532,1.532,0,0,1,5.55,34.7a1.521,1.521,0,0,1,1.663.492,2.67,2.67,0,0,0,.207.592H7.011l-.455-.456a.27.27,0,0,0-.383.382Zm-1.151.074H4.059a.889.889,0,0,1,.419-.617,1.359,1.359,0,0,0,.493.409,2.091,2.091,0,0,0,.052.208Zm-2.728-8.6H4.313V28.3H2.294ZM3.94,28.841V29.4H2.668v-.566ZM1.416,31.775H3.172a.271.271,0,0,0,0-.541H1.416v-.556a.735.735,0,0,1,.733-.735H4.457a.735.735,0,0,1,.733.735v.556h-.5a.27.27,0,1,0,0,.541h.5v.24a1.363,1.363,0,0,0-.39,1.207h0a1.366,1.366,0,0,0-.573,1.358c.005.031.012.061.019.092a1.434,1.434,0,0,0-.36.283H1.416Zm0,3.723H3.572a1.418,1.418,0,0,0-.059.284H3.468a.452.452,0,0,0-.451.452A6.841,6.841,0,0,0,3.134,37.5c-.078-.006-.157-.01-.238-.01a2.463,2.463,0,0,0-.877.146c-.365.144-.466.349-.488.49-.039.019-.077.04-.114.06ZM4.84,38.819a1.024,1.024,0,0,1,.191.192h-.01a1.68,1.68,0,0,1-.741-.235,1.949,1.949,0,0,1-.31-.211.27.27,0,0,0-.35,0,1.937,1.937,0,0,1-.31.21,1.68,1.68,0,0,1-.741.235H2.56a1.022,1.022,0,0,1,.191-.192.27.27,0,0,0-.137-.48,1.292,1.292,0,0,1-.509-.147,1.54,1.54,0,0,1,.79-.165,1.685,1.685,0,0,1,.767.15.27.27,0,0,0,.265,0,1.686,1.686,0,0,1,.768-.15,1.54,1.54,0,0,1,.79.165,1.291,1.291,0,0,1-.509.147.27.27,0,0,0-.138.48Zm-.54,3.29.009.05a1.231,1.231,0,0,0,.195.472H2.895A2.258,2.258,0,0,1,.541,40.488a2.124,2.124,0,0,1,1.22-1.877,1.161,1.161,0,0,0,.311.159.64.64,0,0,0-.091.267.44.44,0,0,0,.107.333.614.614,0,0,0,.482.18,2.233,2.233,0,0,0,1-.3,2.52,2.52,0,0,0,.223-.138,2,2,0,0,0,.223.138,2.234,2.234,0,0,0,1,.3h0a.614.614,0,0,0,.482-.18.44.44,0,0,0,.108-.333.64.64,0,0,0-.091-.267,1.164,1.164,0,0,0,.311-.159A2.187,2.187,0,0,1,6.989,40l-1.912.726A1.236,1.236,0,0,0,4.3,42.109Zm9.954.267a.7.7,0,0,1-.538.251h-.284l-.177-.957a.271.271,0,0,0-.532.1l.159.859h-.93l-.12-.647a.271.271,0,0,0-.532.1l.1.549H9.237l-.163-.879a.271.271,0,0,0-.532.1l.145.781H5.528a.7.7,0,0,1-.689-.57l-.009-.05a.7.7,0,0,1,.439-.776l1.062-.4.079.427a.27.27,0,0,0,.265.221.273.273,0,0,0,.05,0,.27.27,0,0,0,.217-.315l-.1-.524,1.577-.6a.27.27,0,0,0-.192-.505L7.5,39.81a2.74,2.74,0,0,0-1.44-1.687c-.022-.142-.123-.346-.488-.49a2.464,2.464,0,0,0-.877-.146,2.743,2.743,0,0,0-.63.07v-.163a.27.27,0,0,0-.437-.212,6.315,6.315,0,0,1-.07-.859h8.805a.271.271,0,0,0,0-.541h-.111a2.676,2.676,0,0,0,.269-1.172.46.46,0,0,0-.415-.457.713.713,0,0,1,.368-.184.729.729,0,0,1,.125-.011.714.714,0,0,1,.7.594.723.723,0,0,1,.01.122.27.27,0,0,0,.247.269.717.717,0,0,1,.643.591.707.707,0,0,1,0,.249h-.29a.27.27,0,1,0,0,.541h2.1a6.231,6.231,0,0,1-.19,1.45l-1.465.865a1.241,1.241,0,0,0-1.634-.814L9.708,38.97a.27.27,0,1,0,.192.505l.4-.151.123.666a.27.27,0,0,0,.266.221.274.274,0,0,0,.05,0,.27.27,0,0,0,.217-.315l-.141-.763,2.106-.8a.7.7,0,0,1,.938.525l.547,2.953a.691.691,0,0,1-.153.566Zm.965-2.116a.27.27,0,0,0-.012.529l2.013.462-.05.337-2.333-.419L14.47,39.2,16.5,38l.169.3-1.714,1.146a.27.27,0,0,0,.2.491l2.693-.495.06.324Z" transform="translate(0 -26.637)"/>
          </g>
        </g>
      </g>
    </g>
  </g>
</svg>
