<svg xmlns="http://www.w3.org/2000/svg" width="30" height="30" viewBox="0 0 30 30">
  <g id="Group_3462" data-name="Group 3462" transform="translate(-20 -221)">
    <circle id="Ellipse_877" data-name="Ellipse 877" cx="15" cy="15" r="15" transform="translate(20 221)" fill="#27e1da"/>
    <g id="shopping-bag" transform="translate(12.642 228)">
      <g id="Group_3418" data-name="Group 3418" transform="translate(20.386)">
        <g id="Group_3417" data-name="Group 3417">
          <path id="Path_2025" data-name="Path 2025" d="M80.93,2.043A2.382,2.382,0,0,0,76.647.978a.28.28,0,1,0,.452.331,1.822,1.822,0,0,1,3.275.813.281.281,0,0,0,.277.241h.04a.28.28,0,0,0,.239-.32Z" transform="translate(-76.593)"/>
        </g>
      </g>
      <g id="Group_3420" data-name="Group 3420" transform="translate(15.919 3.643)">
        <g id="Group_3419" data-name="Group 3419">
          <path id="Path_2026" data-name="Path 2026" d="M35.036,45.909l-.841-1.4a.28.28,0,0,0-.24-.136h-.8a.28.28,0,0,0,0,.56h.65l.5.841H22.96l.5-.841h.3a.28.28,0,1,0,0-.56H23.3a.28.28,0,0,0-.24.136l-.841,1.4a.28.28,0,0,0,.24.425H34.8a.28.28,0,0,0,.24-.425Z" transform="translate(-22.185 -44.372)"/>
        </g>
      </g>
      <g id="Group_3422" data-name="Group 3422" transform="translate(22.747 1.57)">
        <g id="Group_3421" data-name="Group 3421">
          <path id="Path_2027" data-name="Path 2027" d="M109.97,20.152a.28.28,0,0,0-.174-.125l-3.82-.894a.28.28,0,0,0-.337.209l-.288,1.232a.28.28,0,0,0,.546.128l.224-.959,3.275.766-.515,2.2a.28.28,0,0,0,.209.337.283.283,0,0,0,.064.007.28.28,0,0,0,.272-.216L110,20.364A.279.279,0,0,0,109.97,20.152Z" transform="translate(-105.343 -19.126)"/>
        </g>
      </g>
      <g id="Group_3424" data-name="Group 3424" transform="translate(17.012 0.852)">
        <g id="Group_3423" data-name="Group 3423">
          <path id="Path_2028" data-name="Path 2028" d="M41,12.781l-.255-2.16a.28.28,0,0,0-.311-.245l-4.687.554a.28.28,0,0,0-.245.311l.426,3.6a.28.28,0,0,0,.278.247h.033a.28.28,0,0,0,.245-.311l-.393-3.324,4.131-.488.222,1.881A.28.28,0,0,0,41,12.781Z" transform="translate(-35.494 -10.374)"/>
        </g>
      </g>
      <g id="Group_3426" data-name="Group 3426" transform="translate(19.106 2.69)">
        <g id="Group_3425" data-name="Group 3425">
          <path id="Path_2029" data-name="Path 2029" d="M66.621,35.3l-.556-2.313a.28.28,0,0,0-.338-.207l-4.515,1.086A.28.28,0,0,0,61,34.2l.278,1.156a.28.28,0,0,0,.545-.131l-.213-.884,3.97-.955.491,2.041a.28.28,0,1,0,.545-.131Z" transform="translate(-60.997 -32.769)"/>
        </g>
      </g>
      <g id="Group_3428" data-name="Group 3428" transform="translate(15.359 5.045)">
        <g id="Group_3427" data-name="Group 3427">
          <path id="Path_2030" data-name="Path 2030" d="M28.81,61.707a.28.28,0,0,0-.28-.266H16.2a.28.28,0,0,0-.28.266l-.561,10.93a.28.28,0,0,0,.28.295H29.091a.28.28,0,0,0,.28-.3ZM15.934,72.371,16.465,62h11.8L28.8,72.371Z" transform="translate(-15.359 -61.441)"/>
        </g>
      </g>
      <g id="Group_3430" data-name="Group 3430" transform="translate(23.626 6.165)">
        <g id="Group_3429" data-name="Group 3429">
          <path id="Path_2031" data-name="Path 2031" d="M116.893,75.093a.841.841,0,1,0,.841.841.841.841,0,0,0-.841-.841Zm0,1.121a.28.28,0,1,1,.28-.28.28.28,0,0,1-.28.28Z" transform="translate(-116.052 -75.093)"/>
        </g>
      </g>
      <g id="Group_3432" data-name="Group 3432" transform="translate(19.422 6.165)">
        <g id="Group_3431" data-name="Group 3431">
          <path id="Path_2032" data-name="Path 2032" d="M65.693,75.093a.841.841,0,1,0,.841.841.841.841,0,0,0-.841-.841Zm0,1.121a.28.28,0,1,1,.28-.28.28.28,0,0,1-.28.28Z" transform="translate(-64.852 -75.093)"/>
        </g>
      </g>
      <g id="Group_3434" data-name="Group 3434" transform="translate(19.983 7.006)">
        <g id="Group_3433" data-name="Group 3433">
          <path id="Path_2033" data-name="Path 2033" d="M76.163,85.333h-.022a.28.28,0,0,0-.28.28.277.277,0,0,0,.022.108v1.433a1.822,1.822,0,0,1-3.643,0V85.613a.28.28,0,0,0-.56,0v1.541a2.382,2.382,0,0,0,4.764,0V85.613a.28.28,0,0,0-.281-.28Z" transform="translate(-71.679 -85.333)"/>
        </g>
      </g>
    </g>
  </g>
</svg>
