<svg xmlns="http://www.w3.org/2000/svg" width="30" height="30" viewBox="0 0 30 30">
  <g id="Group_3465" data-name="Group 3465" transform="translate(-20 -526)">
    <circle id="Ellipse_877" data-name="Ellipse 877" cx="15" cy="15" r="15" transform="translate(20 526)" fill="#fcea8c"/>
    <g id="snow-flake_1_" data-name="snow-flake (1)" transform="translate(27 533)">
      <path id="Path_2042" data-name="Path 2042" d="M39.524,3.86l-2.786.178,1.254,2.475,1.456-.39,3.169,1.83-3.169,1.83-1.456-.39-1.254,2.475,2.786.178.39-1.456,3.169-1.83v3.659l-1.066,1.066,1.532,2.42,1.532-2.42-1.066-1.066V8.759l3.169,1.83.39,1.456,2.786-.178L49.106,9.392l-1.456.39-3.169-1.83,3.169-1.83,1.456.39L50.36,4.038,47.574,3.86l-.39,1.456-3.169,1.83V3.486L45.081,2.42,43.549,0,42.017,2.42l1.066,1.066V7.145l-3.169-1.83Z" transform="translate(-35.597)"/>
      <rect id="Rectangle_601" data-name="Rectangle 601" width="1" height="1" transform="translate(13 2)"/>
      <rect id="Rectangle_602" data-name="Rectangle 602" width="1" height="1" transform="translate(9)"/>
      <rect id="Rectangle_603" data-name="Rectangle 603" width="1" height="1" transform="translate(6)"/>
      <rect id="Rectangle_604" data-name="Rectangle 604" width="1" height="1" transform="translate(15 6)"/>
      <rect id="Rectangle_605" data-name="Rectangle 605" width="1" height="1" transform="translate(2 2)"/>
      <rect id="Rectangle_606" data-name="Rectangle 606" width="1" height="1" transform="translate(0 6)"/>
      <rect id="Rectangle_607" data-name="Rectangle 607" width="1" height="1" transform="translate(0 9)"/>
      <rect id="Rectangle_608" data-name="Rectangle 608" width="1" height="1" transform="translate(3 13)"/>
      <rect id="Rectangle_609" data-name="Rectangle 609" width="1" height="1" transform="translate(6 15)"/>
      <rect id="Rectangle_610" data-name="Rectangle 610" width="1" height="1" transform="translate(9 15)"/>
      <rect id="Rectangle_611" data-name="Rectangle 611" width="1" height="1" transform="translate(15 9)"/>
      <rect id="Rectangle_612" data-name="Rectangle 612" width="1" height="1" transform="translate(12 13)"/>
      <path id="Path_2043" data-name="Path 2043" d="M301,67.432l1.3-.749.749-2.8L301,65.933Z" transform="translate(-291.65 -61.901)"/>
      <path id="Path_2044" data-name="Path 2044" d="M147.144,65.933,145.1,63.886l.749,2.8,1.3.749Z" transform="translate(-140.59 -61.901)"/>
      <path id="Path_2045" data-name="Path 2045" d="M346.005,232.611l1.3.75,2.831-.75-2.831-.75Z" transform="translate(-335.257 -224.659)"/>
      <path id="Path_2046" data-name="Path 2046" d="M301,333.948v1.5l2.047,2.047-.749-2.8Z" transform="translate(-291.65 -323.574)"/>
      <path id="Path_2047" data-name="Path 2047" d="M147.144,333.948l-1.3.75-.749,2.8,2.047-2.047Z" transform="translate(-140.59 -323.574)"/>
      <path id="Path_2048" data-name="Path 2048" d="M37.177,232.611l-1.3-.75-2.831.75,2.831.75Z" transform="translate(-32.02 -224.659)"/>
    </g>
  </g>
</svg>
